<svg width="715" height="460" viewBox="0 0 715 460" fill="none" xmlns="http://www.w3.org/2000/svg">
<rect width="715" height="460" fill="url(#paint0_linear_34_4)"/>
<rect x="0.75" y="0.75" width="713.5" height="458.5" stroke="black" stroke-opacity="0.5" stroke-width="1.5"/>
<rect x="104" y="54" width="553" height="350" rx="5" fill="#7F8C27"/>
<rect x="104.5" y="54.5" width="552" height="349" rx="4.5" stroke="#D9D9D9" stroke-opacity="0.75"/>
<path d="M104 59C104 56.2386 106.239 54 109 54H652C654.761 54 657 56.2386 657 59V399C657 401.761 654.761 404 652 404H109C106.239 404 104 401.761 104 399V59Z" fill="url(#paint1_linear_34_4)"/>
<path d="M104 59C104 56.2386 106.239 54 109 54H652C654.761 54 657 56.2386 657 59V399C657 401.761 654.761 404 652 404H109C106.239 404 104 401.761 104 399V59Z" fill="url(#paint2_linear_34_4)" fill-opacity="0.8"/>
<path d="M104 59C104 56.2386 106.239 54 109 54H652C654.761 54 657 56.2386 657 59V399C657 401.761 654.761 404 652 404H109C106.239 404 104 401.761 104 399V59Z" fill="url(#paint3_radial_34_4)" fill-opacity="0.8"/>
<path d="M19.5807 431V429.992H21.6947V421.788H19.5807V420.78H24.9287V421.788H22.8287V429.992H24.9287V431H19.5807ZM30.7192 431.14C30.1126 431.14 29.5852 431.023 29.1372 430.79C28.6986 430.557 28.3579 430.221 28.1152 429.782C27.8726 429.343 27.7512 428.83 27.7512 428.242V423.538C27.7512 422.941 27.8726 422.427 28.1152 421.998C28.3579 421.559 28.6986 421.223 29.1372 420.99C29.5852 420.757 30.1126 420.64 30.7192 420.64C31.3166 420.64 31.8346 420.761 32.2732 421.004C32.7212 421.237 33.0666 421.573 33.3092 422.012C33.5519 422.451 33.6732 422.973 33.6732 423.58H32.5672C32.5672 422.964 32.4039 422.488 32.0772 422.152C31.7506 421.807 31.2979 421.634 30.7192 421.634C30.1406 421.634 29.6832 421.802 29.3472 422.138C29.0206 422.465 28.8572 422.931 28.8572 423.538V428.242C28.8572 428.839 29.0206 429.306 29.3472 429.642C29.6832 429.978 30.1406 430.146 30.7192 430.146C31.2979 430.146 31.7506 429.978 32.0772 429.642C32.4039 429.297 32.5672 428.816 32.5672 428.2H33.6732C33.6732 428.797 33.5519 429.32 33.3092 429.768C33.0666 430.207 32.7212 430.547 32.2732 430.79C31.8346 431.023 31.3166 431.14 30.7192 431.14ZM36.3138 431V420.78H42.0818V421.788H37.4198V425.162H41.5918V426.156H37.4198V429.992H42.0818V431H36.3138ZM44.6103 431V420.78H47.4243C48.3389 420.78 49.0576 421.018 49.5803 421.494C50.1029 421.961 50.3643 422.605 50.3643 423.426C50.3643 423.893 50.2663 424.303 50.0703 424.658C49.8836 425.003 49.6129 425.274 49.2583 425.47C48.9129 425.657 48.4929 425.745 47.9983 425.736V425.54C48.5303 425.54 48.9876 425.647 49.3703 425.862C49.7623 426.067 50.0656 426.371 50.2803 426.772C50.4949 427.164 50.6023 427.631 50.6023 428.172C50.6023 428.751 50.4809 429.255 50.2383 429.684C49.9956 430.104 49.6503 430.431 49.2023 430.664C48.7543 430.888 48.2176 431 47.5923 431H44.6103ZM45.6883 429.992H47.4943C48.1196 429.992 48.6096 429.829 48.9643 429.502C49.3283 429.166 49.5103 428.713 49.5103 428.144C49.5103 427.556 49.3283 427.085 48.9643 426.73C48.6096 426.366 48.1196 426.184 47.4943 426.184H45.6883V429.992ZM45.6883 425.218H47.4243C47.9936 425.218 48.4416 425.064 48.7683 424.756C49.0949 424.448 49.2583 424.028 49.2583 423.496C49.2583 422.964 49.0949 422.549 48.7683 422.25C48.4509 421.942 48.0029 421.788 47.4243 421.788H45.6883V425.218ZM52.9908 431V420.78H56.0708C56.6775 420.78 57.2048 420.901 57.6528 421.144C58.1101 421.387 58.4601 421.727 58.7028 422.166C58.9548 422.595 59.0808 423.104 59.0808 423.692C59.0808 424.392 58.8941 424.989 58.5208 425.484C58.1475 425.979 57.6388 426.31 56.9948 426.478L59.2068 431H57.8908L55.8468 426.59H54.0968V431H52.9908ZM54.0968 425.582H56.0708C56.6401 425.582 57.0928 425.409 57.4288 425.064C57.7741 424.719 57.9468 424.257 57.9468 423.678C57.9468 423.099 57.7741 422.642 57.4288 422.306C57.0928 421.961 56.6401 421.788 56.0708 421.788H54.0968V425.582ZM61.4973 431V420.78H67.2653V421.788H62.6033V425.162H66.7753V426.156H62.6033V429.992H67.2653V431H61.4973ZM69.1919 431L71.8939 420.78H73.3639L76.0519 431H74.9319L74.2179 428.228H71.0259L70.3259 431H69.1919ZM71.2499 427.276H73.9799L73.1119 423.86C72.9719 423.291 72.8599 422.815 72.7759 422.432C72.6919 422.04 72.6405 421.788 72.6219 421.676C72.6032 421.788 72.5519 422.04 72.4679 422.432C72.3839 422.815 72.2719 423.291 72.1319 423.86L71.2499 427.276ZM78.1744 431V420.78H79.2804V425.218H80.9604L83.2284 420.78H84.4464L81.9404 425.68L84.5864 431H83.2984L80.9324 426.198H79.2804V431H78.1744ZM86.6809 431V420.78H92.4489V421.788H87.7869V425.162H91.9589V426.156H87.7869V429.992H92.4489V431H86.6809ZM94.9635 431V420.78H98.0435C98.6501 420.78 99.1775 420.901 99.6255 421.144C100.083 421.387 100.433 421.727 100.675 422.166C100.927 422.595 101.053 423.104 101.053 423.692C101.053 424.392 100.867 424.989 100.493 425.484C100.12 425.979 99.6115 426.31 98.9675 426.478L101.179 431H99.8635L97.8195 426.59H96.0695V431H94.9635ZM96.0695 425.582H98.0435C98.6128 425.582 99.0655 425.409 99.4015 425.064C99.7468 424.719 99.9195 424.257 99.9195 423.678C99.9195 423.099 99.7468 422.642 99.4015 422.306C99.0655 421.961 98.6128 421.788 98.0435 421.788H96.0695V425.582ZM60.7973 445L63.4993 434.78H64.9693L67.6573 445H66.5373L65.8233 442.228H62.6313L61.9313 445H60.7973ZM62.8553 441.276H65.5853L64.7173 437.86C64.5773 437.291 64.4653 436.815 64.3813 436.432C64.2973 436.04 64.246 435.788 64.2273 435.676C64.2087 435.788 64.1573 436.04 64.0733 436.432C63.9893 436.815 63.8773 437.291 63.7373 437.86L62.8553 441.276ZM72.6219 445.14C71.7072 445.14 70.9979 444.879 70.4939 444.356C69.9992 443.833 69.7519 443.129 69.7519 442.242V434.78H70.8579V442.242C70.8579 442.83 71.0072 443.297 71.3059 443.642C71.6045 443.978 72.0432 444.146 72.6219 444.146C73.2005 444.146 73.6392 443.978 73.9379 443.642C74.2365 443.297 74.3859 442.83 74.3859 442.242V434.78H75.4919V442.242C75.4919 443.138 75.2445 443.847 74.7499 444.37C74.2552 444.883 73.5459 445.14 72.6219 445.14ZM78.1744 445V434.78H80.7084C81.3617 434.78 81.9264 434.906 82.4024 435.158C82.8877 435.41 83.2611 435.769 83.5224 436.236C83.7837 436.693 83.9144 437.23 83.9144 437.846V441.92C83.9144 442.545 83.7837 443.091 83.5224 443.558C83.2611 444.015 82.8877 444.37 82.4024 444.622C81.9264 444.874 81.3617 445 80.7084 445H78.1744ZM79.2804 444.006H80.7084C81.3617 444.006 81.8751 443.819 82.2484 443.446C82.6217 443.073 82.8084 442.564 82.8084 441.92V437.846C82.8084 437.211 82.6171 436.707 82.2344 436.334C81.8611 435.961 81.3524 435.774 80.7084 435.774H79.2804V444.006ZM86.7369 445V443.992H88.8509V435.788H86.7369V434.78H92.0849V435.788H89.9849V443.992H92.0849V445H86.7369ZM97.8055 445.14C97.2081 445.14 96.6901 445.023 96.2515 444.79C95.8221 444.557 95.4908 444.225 95.2575 443.796C95.0241 443.357 94.9075 442.839 94.9075 442.242V437.538C94.9075 436.941 95.0241 436.427 95.2575 435.998C95.4908 435.559 95.8221 435.223 96.2515 434.99C96.6901 434.757 97.2081 434.64 97.8055 434.64C98.4028 434.64 98.9161 434.757 99.3455 434.99C99.7841 435.223 100.12 435.559 100.353 435.998C100.587 436.427 100.703 436.941 100.703 437.538V442.242C100.703 442.839 100.587 443.357 100.353 443.796C100.12 444.225 99.7841 444.557 99.3455 444.79C98.9161 445.023 98.4028 445.14 97.8055 445.14ZM97.8055 444.146C98.3841 444.146 98.8275 443.983 99.1355 443.656C99.4435 443.32 99.5975 442.849 99.5975 442.242V437.538C99.5975 436.931 99.4388 436.465 99.1215 436.138C98.8135 435.802 98.3748 435.634 97.8055 435.634C97.2361 435.634 96.7928 435.802 96.4755 436.138C96.1675 436.465 96.0135 436.931 96.0135 437.538V442.242C96.0135 442.849 96.1675 443.32 96.4755 443.656C96.7928 443.983 97.2361 444.146 97.8055 444.146Z" fill="white" fill-opacity="0.66"/>
<path d="M120.096 446L117.18 442.292L118.152 437.756H123.246L122.796 439.808L123.66 440.906H130.572L131.904 439.808L132.498 437.036L131.634 435.938H122.346L119.43 432.23L121.068 424.508L125.568 420.8H136.998L139.914 424.508L138.942 429.044H133.848L134.298 426.992L133.434 425.894H126.972L125.622 426.992L125.028 429.746L125.91 430.844H135.198L138.114 434.552L136.476 442.292L131.976 446H120.096ZM121.248 444.326H131.4L134.892 441.464L136.224 435.164L134.154 432.518H124.758L123.174 430.538L124.11 426.164L126.504 424.202H134.712L136.17 426.038L135.864 427.496H137.574L138.042 425.246L135.882 422.492H126.054L122.58 425.372L121.302 431.33L123.606 434.246H132.966L134.352 435.92L133.344 440.672L130.95 442.616H122.436L120.96 440.78L121.284 439.304H119.574L119.088 441.572L121.248 444.326ZM139.297 446L144.661 420.8H149.755L145.471 440.906H156.415L155.335 446H139.297ZM141.349 444.344H154.021L154.381 442.634H143.437L147.703 422.456H145.993L141.349 444.344ZM161.758 446L158.842 442.292L162.622 424.508L167.122 420.8H179.074L181.99 424.508L178.21 442.292L173.71 446H161.758ZM165.322 440.906H172.306L173.638 439.808L176.374 426.992L175.51 425.894H168.526L167.194 426.992L164.458 439.808L165.322 440.906ZM163.018 444.254H173.224L176.698 441.392L180.118 425.318L177.85 422.456H167.644L164.17 425.318L160.75 441.392L163.018 444.254ZM164.188 442.544L162.64 440.6L165.718 426.11L168.094 424.166H176.68L178.246 426.11L175.168 440.6L172.774 442.544H164.188ZM181.029 446L186.393 420.8H201.351L204.267 424.508L202.161 434.426L197.247 438.476H187.725L186.123 446H181.029ZM183.009 444.542H184.719L186.375 436.73H196.851L200.739 433.526L202.485 425.318L200.217 422.456H187.689L183.009 444.542ZM188.805 433.382H195.843L197.607 431.942L198.669 426.992L197.805 425.894H190.407L188.805 433.382ZM186.735 435.02L189.039 424.166H199.047L200.613 426.11L199.191 432.734L196.401 435.02H186.735ZM202.77 446L208.134 420.8H224.514L223.434 425.894H212.148L211.104 430.736H221.148L220.068 435.83H210.024L208.944 440.906H220.23L219.15 446H202.77ZM204.876 444.254H218.034L218.412 442.544H206.946L208.746 434.138H218.952L219.294 432.428H209.106L210.852 424.166H222.3L222.678 422.456H209.502L204.876 444.254ZM235.483 446L232.567 442.292L236.347 424.508L240.847 420.8H252.799L255.715 424.508L251.935 442.292L247.435 446H235.483ZM239.047 440.906H246.031L247.363 439.808L250.099 426.992L249.235 425.894H242.251L240.919 426.992L238.183 439.808L239.047 440.906ZM236.743 444.254H246.949L250.423 441.392L253.843 425.318L251.575 422.456H241.369L237.895 425.318L234.475 441.392L236.743 444.254ZM237.913 442.544L236.365 440.6L239.443 426.11L241.819 424.166H250.405L251.971 426.11L248.893 440.6L246.499 442.544H237.913ZM261.523 446L256.195 439.232L260.119 420.8H265.213L261.811 436.748L264.709 440.402H266.779L271.207 436.748L274.609 420.8H279.703L275.779 439.232L267.571 446H261.523ZM262.747 444.308H267.085L274.267 438.422L277.651 422.456H275.941L272.719 437.63L266.797 442.472H263.827L259.939 437.63L263.161 422.456H261.451L258.049 438.422L262.747 444.308ZM277.937 446L283.301 420.8H299.681L298.601 425.894H287.315L286.271 430.736H296.315L295.235 435.83H285.191L284.111 440.906H295.397L294.317 446H277.937ZM280.043 444.254H293.201L293.579 442.544H282.113L283.913 434.138H294.119L294.461 432.428H284.273L286.019 424.166H297.467L297.845 422.456H284.669L280.043 444.254ZM297.928 446L303.292 420.8H318.826L321.742 424.508L320.086 432.32L317.458 434.336L319.15 436.73L317.17 446H312.076L313.66 438.53L312.256 436.73H305.002L303.022 446H297.928ZM299.98 444.344H301.69L303.688 434.948H313.336L315.532 437.936L314.164 444.344H315.874L317.35 437.378L315.082 434.138L318.466 431.672L319.834 425.336L317.566 422.456H304.624L299.98 444.344ZM306.082 431.636H314.038L315.37 430.52L316.126 426.992L315.262 425.894H307.306L306.082 431.636ZM304.048 433.238L305.974 424.166H316.378L317.944 426.128L316.882 431.096L313.93 433.238H304.048ZM320.763 446L326.127 420.8H331.221L326.937 440.906H337.881L336.801 446H320.763ZM322.815 444.344H335.487L335.847 442.634H324.903L329.169 422.456H327.459L322.815 444.344ZM343.223 446L340.307 442.292L344.087 424.508L348.587 420.8H360.539L363.455 424.508L359.675 442.292L355.175 446H343.223ZM346.787 440.906H353.771L355.103 439.808L357.839 426.992L356.975 425.894H349.991L348.659 426.992L345.923 439.808L346.787 440.906ZM344.483 444.254H354.689L358.163 441.392L361.583 425.318L359.315 422.456H349.109L345.635 425.318L342.215 441.392L344.483 444.254ZM345.653 442.544L344.105 440.6L347.183 426.11L349.559 424.166H358.145L359.711 426.11L356.633 440.6L354.239 442.544H345.653ZM362.314 446L366.886 424.508L371.386 420.8H383.014L385.93 424.508L381.358 446H376.282L377.866 438.584H368.974L367.39 446H362.314ZM364.456 444.182H366.166L367.696 436.946H379.9L378.37 444.182H380.08L384.094 425.264L381.826 422.384H371.944L368.47 425.264L364.456 444.182ZM370.054 433.508H378.946L380.332 426.992L379.468 425.894H372.772L371.44 426.992L370.054 433.508ZM368.056 435.236L370 426.056L372.394 424.094H380.656L382.204 426.056L380.26 435.236H368.056ZM384.942 446L390.306 420.8H405.3L408.216 424.508L404.436 442.292L399.936 446H384.942ZM391.116 440.906H398.55L399.882 439.808L402.618 426.992L401.754 425.894H394.32L391.116 440.906ZM387.012 444.308H399.414L402.888 441.446L406.308 425.372L404.04 422.51H391.638L387.012 444.308ZM389.082 442.598L392.988 424.22H402.87L404.436 426.164L401.358 440.654L398.964 442.598H389.082Z" fill="white" fill-opacity="0.66"/>
<path d="M364.748 34V23.78H367.604C368.276 23.78 368.859 23.9107 369.354 24.172C369.849 24.424 370.231 24.7833 370.502 25.25C370.782 25.7167 370.922 26.2673 370.922 26.902V30.864C370.922 31.4893 370.782 32.04 370.502 32.516C370.231 32.992 369.849 33.3607 369.354 33.622C368.859 33.874 368.276 34 367.604 34H364.748ZM366.26 32.628H367.604C368.164 32.628 368.603 32.474 368.92 32.166C369.247 31.8487 369.41 31.4147 369.41 30.864V26.902C369.41 26.3607 369.247 25.936 368.92 25.628C368.603 25.3107 368.164 25.152 367.604 25.152H366.26V32.628ZM373.352 34V32.656H375.41V25.124H373.352V23.78H379.008V25.124H376.95V32.656H379.008V34H373.352ZM384.631 34.14C383.996 34.14 383.441 34.0233 382.965 33.79C382.498 33.5473 382.134 33.202 381.873 32.754C381.621 32.2967 381.495 31.7647 381.495 31.158V26.622C381.495 26.006 381.621 25.474 381.873 25.026C382.134 24.578 382.498 24.2373 382.965 24.004C383.441 23.7613 383.996 23.64 384.631 23.64C385.266 23.64 385.816 23.7613 386.283 24.004C386.75 24.2467 387.109 24.592 387.361 25.04C387.622 25.4787 387.753 26.006 387.753 26.622H386.241C386.241 26.09 386.101 25.684 385.821 25.404C385.541 25.124 385.144 24.984 384.631 24.984C384.118 24.984 383.716 25.124 383.427 25.404C383.147 25.684 383.007 26.0853 383.007 26.608V31.158C383.007 31.6807 383.147 32.0867 383.427 32.376C383.716 32.6653 384.118 32.81 384.631 32.81C385.144 32.81 385.541 32.6653 385.821 32.376C386.101 32.0867 386.241 31.6807 386.241 31.158V30.01H384.337V28.68H387.753V31.158C387.753 31.7647 387.622 32.292 387.361 32.74C387.109 33.188 386.75 33.5333 386.283 33.776C385.816 34.0187 385.266 34.14 384.631 34.14ZM390.142 34V32.656H392.2V25.124H390.142V23.78H395.798V25.124H393.74V32.656H395.798V34H390.142ZM400.608 34V25.166H397.878V23.766H404.85V25.166H402.12V34H400.608ZM406.161 34L408.765 23.78H410.753L413.357 34H411.831L411.215 31.41H408.317L407.701 34H406.161ZM408.597 30.164H410.921L410.221 27.21C410.099 26.6873 409.997 26.2347 409.913 25.852C409.838 25.46 409.787 25.194 409.759 25.054C409.731 25.194 409.679 25.46 409.605 25.852C409.53 26.2347 409.427 26.6827 409.297 27.196L408.597 30.164ZM415.479 34V23.78H416.991V32.614H421.457V34H415.479ZM431.904 34V23.78H434.76C435.432 23.78 436.016 23.9107 436.51 24.172C437.005 24.424 437.388 24.7833 437.658 25.25C437.938 25.7167 438.078 26.2673 438.078 26.902V30.864C438.078 31.4893 437.938 32.04 437.658 32.516C437.388 32.992 437.005 33.3607 436.51 33.622C436.016 33.874 435.432 34 434.76 34H431.904ZM433.416 32.628H434.76C435.32 32.628 435.759 32.474 436.076 32.166C436.403 31.8487 436.566 31.4147 436.566 30.864V26.902C436.566 26.3607 436.403 25.936 436.076 25.628C435.759 25.3107 435.32 25.152 434.76 25.152H433.416V32.628ZM440.453 34V23.78H446.459V25.124H441.937V28.022H445.969V29.352H441.937V32.656H446.459V34H440.453ZM449.057 34V23.78H450.569V32.614H455.035V34H449.057ZM459.37 34V25.166H456.64V23.766H463.612V25.166H460.882V34H459.37ZM464.922 34L467.526 23.78H469.514L472.118 34H470.592L469.976 31.41H467.078L466.462 34H464.922ZM467.358 30.164H469.682L468.982 27.21C468.861 26.6873 468.758 26.2347 468.674 25.852C468.6 25.46 468.548 25.194 468.52 25.054C468.492 25.194 468.441 25.46 468.366 25.852C468.292 26.2347 468.189 26.6827 468.058 27.196L467.358 30.164ZM482.033 34V23.78H483.895L484.917 27.056C485.02 27.364 485.109 27.6627 485.183 27.952C485.258 28.232 485.309 28.442 485.337 28.582C485.375 28.442 485.426 28.232 485.491 27.952C485.566 27.6627 485.65 27.364 485.743 27.056L486.723 23.78H488.585V34H487.157V30.556C487.157 30.1173 487.167 29.632 487.185 29.1C487.213 28.5587 487.251 28.0173 487.297 27.476C487.344 26.9253 487.391 26.4027 487.437 25.908C487.484 25.404 487.526 24.9653 487.563 24.592L486.051 29.562H484.595L483.055 24.592C483.102 24.956 483.149 25.3807 483.195 25.866C483.242 26.342 483.284 26.8507 483.321 27.392C483.359 27.9333 483.391 28.4793 483.419 29.03C483.447 29.5713 483.461 30.08 483.461 30.556V34H482.033ZM493.704 34.14C493.069 34.14 492.519 34.0233 492.052 33.79C491.595 33.5473 491.24 33.202 490.988 32.754C490.745 32.2967 490.624 31.7647 490.624 31.158V26.622C490.624 26.006 490.745 25.474 490.988 25.026C491.24 24.578 491.595 24.2373 492.052 24.004C492.519 23.7613 493.069 23.64 493.704 23.64C494.339 23.64 494.885 23.7613 495.342 24.004C495.809 24.2373 496.163 24.578 496.406 25.026C496.658 25.474 496.784 26.0013 496.784 26.608V31.158C496.784 31.7647 496.658 32.2967 496.406 32.754C496.163 33.202 495.809 33.5473 495.342 33.79C494.885 34.0233 494.339 34.14 493.704 34.14ZM493.704 32.796C494.217 32.796 494.605 32.656 494.866 32.376C495.137 32.0867 495.272 31.6807 495.272 31.158V26.622C495.272 26.09 495.137 25.684 494.866 25.404C494.605 25.124 494.217 24.984 493.704 24.984C493.2 24.984 492.813 25.124 492.542 25.404C492.271 25.684 492.136 26.09 492.136 26.622V31.158C492.136 31.6807 492.271 32.0867 492.542 32.376C492.813 32.656 493.2 32.796 493.704 32.796ZM499.06 34V23.78H501.916C502.588 23.78 503.172 23.9107 503.666 24.172C504.161 24.424 504.544 24.7833 504.814 25.25C505.094 25.7167 505.234 26.2673 505.234 26.902V30.864C505.234 31.4893 505.094 32.04 504.814 32.516C504.544 32.992 504.161 33.3607 503.666 33.622C503.172 33.874 502.588 34 501.916 34H499.06ZM500.572 32.628H501.916C502.476 32.628 502.915 32.474 503.232 32.166C503.559 31.8487 503.722 31.4147 503.722 30.864V26.902C503.722 26.3607 503.559 25.936 503.232 25.628C502.915 25.3107 502.476 25.152 501.916 25.152H500.572V32.628ZM510.493 34.14C509.513 34.14 508.757 33.874 508.225 33.342C507.693 32.8007 507.427 32.068 507.427 31.144V23.78H508.939V31.144C508.939 31.6573 509.065 32.0633 509.317 32.362C509.578 32.6607 509.97 32.81 510.493 32.81C511.006 32.81 511.394 32.6607 511.655 32.362C511.916 32.0633 512.047 31.6573 512.047 31.144V23.78H513.559V31.144C513.559 32.068 513.293 32.8007 512.761 33.342C512.229 33.874 511.473 34.14 510.493 34.14ZM516.214 34V23.78H517.726V32.614H522.192V34H516.214ZM523.684 34L526.288 23.78H528.276L530.88 34H529.354L528.738 31.41H525.84L525.224 34H523.684ZM526.12 30.164H528.444L527.744 27.21C527.623 26.6873 527.52 26.2347 527.436 25.852C527.361 25.46 527.31 25.194 527.282 25.054C527.254 25.194 527.203 25.46 527.128 25.852C527.053 26.2347 526.951 26.6827 526.82 27.196L526.12 30.164ZM534.921 34V25.166H532.191V23.766H539.163V25.166H536.433V34H534.921ZM541.243 34V32.656H543.301V25.124H541.243V23.78H546.899V25.124H544.841V32.656H546.899V34H541.243ZM552.466 34.14C551.831 34.14 551.28 34.0233 550.814 33.79C550.356 33.5473 550.002 33.202 549.75 32.754C549.507 32.2967 549.386 31.7647 549.386 31.158V26.622C549.386 26.006 549.507 25.474 549.75 25.026C550.002 24.578 550.356 24.2373 550.814 24.004C551.28 23.7613 551.831 23.64 552.466 23.64C553.1 23.64 553.646 23.7613 554.104 24.004C554.57 24.2373 554.925 24.578 555.168 25.026C555.42 25.474 555.546 26.0013 555.546 26.608V31.158C555.546 31.7647 555.42 32.2967 555.168 32.754C554.925 33.202 554.57 33.5473 554.104 33.79C553.646 34.0233 553.1 34.14 552.466 34.14ZM552.466 32.796C552.979 32.796 553.366 32.656 553.628 32.376C553.898 32.0867 554.034 31.6807 554.034 31.158V26.622C554.034 26.09 553.898 25.684 553.628 25.404C553.366 25.124 552.979 24.984 552.466 24.984C551.962 24.984 551.574 25.124 551.304 25.404C551.033 25.684 550.898 26.09 550.898 26.622V31.158C550.898 31.6807 551.033 32.0867 551.304 32.376C551.574 32.656 551.962 32.796 552.466 32.796ZM557.794 34V23.78H559.698L562.68 32.278C562.661 32.0073 562.638 31.6853 562.61 31.312C562.582 30.9387 562.559 30.5513 562.54 30.15C562.531 29.7487 562.526 29.3847 562.526 29.058V23.78H563.926V34H562.022L559.054 25.502C559.073 25.7447 559.091 26.048 559.11 26.412C559.138 26.776 559.157 27.154 559.166 27.546C559.185 27.938 559.194 28.302 559.194 28.638V34H557.794ZM574.625 34V23.78H577.831C578.475 23.78 579.035 23.906 579.511 24.158C579.987 24.4007 580.356 24.746 580.617 25.194C580.888 25.642 581.023 26.1693 581.023 26.776C581.023 27.4573 580.846 28.05 580.491 28.554C580.146 29.0487 579.675 29.3987 579.077 29.604L581.163 34H579.441L577.579 29.8H576.137V34H574.625ZM576.137 28.47H577.831C578.335 28.47 578.737 28.3207 579.035 28.022C579.334 27.714 579.483 27.308 579.483 26.804C579.483 26.2813 579.334 25.8707 579.035 25.572C578.737 25.2733 578.335 25.124 577.831 25.124H576.137V28.47ZM583.16 34V23.78H589.166V25.124H584.644V28.022H588.676V29.352H584.644V32.656H589.166V34H583.16ZM594.48 34.14C593.79 34.14 593.197 34.028 592.702 33.804C592.208 33.5707 591.825 33.244 591.554 32.824C591.284 32.3947 591.148 31.886 591.148 31.298H592.646C592.646 31.7647 592.81 32.1333 593.136 32.404C593.463 32.6653 593.916 32.796 594.494 32.796C595.036 32.796 595.46 32.6653 595.768 32.404C596.076 32.1427 596.23 31.7833 596.23 31.326C596.23 30.9433 596.123 30.612 595.908 30.332C595.703 30.052 595.404 29.8607 595.012 29.758L593.724 29.38C592.978 29.1653 592.399 28.8013 591.988 28.288C591.587 27.7653 591.386 27.1447 591.386 26.426C591.386 25.866 591.512 25.376 591.764 24.956C592.016 24.536 592.376 24.2093 592.842 23.976C593.309 23.7427 593.86 23.626 594.494 23.626C595.428 23.626 596.174 23.878 596.734 24.382C597.304 24.886 597.593 25.5627 597.602 26.412H596.09C596.09 25.964 595.946 25.614 595.656 25.362C595.376 25.1007 594.98 24.97 594.466 24.97C593.972 24.97 593.584 25.0913 593.304 25.334C593.024 25.5673 592.884 25.8987 592.884 26.328C592.884 26.7107 592.987 27.042 593.192 27.322C593.407 27.602 593.71 27.798 594.102 27.91L595.404 28.302C596.151 28.5073 596.725 28.8713 597.126 29.394C597.528 29.9167 597.728 30.542 597.728 31.27C597.728 31.8393 597.593 32.3433 597.322 32.782C597.052 33.2113 596.674 33.5473 596.188 33.79C595.703 34.0233 595.134 34.14 594.48 34.14ZM599.235 34L601.839 23.78H603.827L606.431 34H604.905L604.289 31.41H601.391L600.775 34H599.235ZM601.671 30.164H603.995L603.295 27.21C603.173 26.6873 603.071 26.2347 602.987 25.852C602.912 25.46 602.861 25.194 602.833 25.054C602.805 25.194 602.753 25.46 602.679 25.852C602.604 26.2347 602.501 26.6827 602.371 27.196L601.671 30.164ZM607.951 34V23.78H609.813L610.835 27.056C610.938 27.364 611.027 27.6627 611.101 27.952C611.176 28.232 611.227 28.442 611.255 28.582C611.293 28.442 611.344 28.232 611.409 27.952C611.484 27.6627 611.568 27.364 611.661 27.056L612.641 23.78H614.503V34H613.075V30.556C613.075 30.1173 613.085 29.632 613.103 29.1C613.131 28.5587 613.169 28.0173 613.215 27.476C613.262 26.9253 613.309 26.4027 613.355 25.908C613.402 25.404 613.444 24.9653 613.481 24.592L611.969 29.562H610.513L608.973 24.592C609.02 24.956 609.067 25.3807 609.113 25.866C609.16 26.342 609.202 26.8507 609.239 27.392C609.277 27.9333 609.309 28.4793 609.337 29.03C609.365 29.5713 609.379 30.08 609.379 30.556V34H607.951ZM616.598 34V23.78H619.944C620.607 23.78 621.181 23.906 621.666 24.158C622.161 24.41 622.539 24.7693 622.8 25.236C623.071 25.6933 623.206 26.2347 623.206 26.86C623.206 27.476 623.071 28.0173 622.8 28.484C622.529 28.9507 622.151 29.31 621.666 29.562C621.181 29.814 620.607 29.94 619.944 29.94H618.11V34H616.598ZM618.11 28.582H619.944C620.467 28.582 620.882 28.428 621.19 28.12C621.507 27.8027 621.666 27.3827 621.666 26.86C621.666 26.328 621.507 25.908 621.19 25.6C620.882 25.292 620.467 25.138 619.944 25.138H618.11V28.582ZM625.342 34V23.78H626.854V32.614H631.32V34H625.342ZM633.527 34V23.78H639.533V25.124H635.011V28.022H639.043V29.352H635.011V32.656H639.533V34H633.527ZM641.781 34V23.78H644.987C645.631 23.78 646.191 23.906 646.667 24.158C647.143 24.4007 647.512 24.746 647.773 25.194C648.044 25.642 648.179 26.1693 648.179 26.776C648.179 27.4573 648.002 28.05 647.647 28.554C647.302 29.0487 646.831 29.3987 646.233 29.604L648.319 34H646.597L644.735 29.8H643.293V34H641.781ZM643.293 28.47H644.987C645.491 28.47 645.893 28.3207 646.191 28.022C646.49 27.714 646.639 27.308 646.639 26.804C646.639 26.2813 646.49 25.8707 646.191 25.572C645.893 25.2733 645.491 25.124 644.987 25.124H643.293V28.47Z" fill="white" fill-opacity="0.5"/>
<path d="M21 25H350" stroke="#7E3AA0" stroke-width="2" stroke-linecap="round"/>
<path d="M350 33L21 33" stroke="#4047AE" stroke-width="2" stroke-linecap="round"/>
<path d="M666 25H700" stroke="#7E3AA0" stroke-width="2" stroke-linecap="round"/>
<path d="M700 33L666 33" stroke="#4047AE" stroke-width="2" stroke-linecap="round"/>
<path d="M32.7897 238V227.78H36.1357C36.7983 227.78 37.3723 227.906 37.8577 228.158C38.3523 228.41 38.7303 228.769 38.9917 229.236C39.2623 229.693 39.3977 230.235 39.3977 230.86C39.3977 231.476 39.2623 232.017 38.9917 232.484C38.721 232.951 38.343 233.31 37.8577 233.562C37.3723 233.814 36.7983 233.94 36.1357 233.94H34.3017V238H32.7897ZM34.3017 232.582H36.1357C36.6583 232.582 37.0737 232.428 37.3817 232.12C37.699 231.803 37.8577 231.383 37.8577 230.86C37.8577 230.328 37.699 229.908 37.3817 229.6C37.0737 229.292 36.6583 229.138 36.1357 229.138H34.3017V232.582ZM44.9082 238.14C44.2735 238.14 43.7229 238.023 43.2562 237.79C42.7989 237.547 42.4442 237.202 42.1922 236.754C41.9495 236.297 41.8282 235.765 41.8282 235.158V230.622C41.8282 230.006 41.9495 229.474 42.1922 229.026C42.4442 228.578 42.7989 228.237 43.2562 228.004C43.7229 227.761 44.2735 227.64 44.9082 227.64C45.5429 227.64 46.0889 227.761 46.5462 228.004C47.0129 228.237 47.3675 228.578 47.6102 229.026C47.8622 229.474 47.9882 230.001 47.9882 230.608V235.158C47.9882 235.765 47.8622 236.297 47.6102 236.754C47.3675 237.202 47.0129 237.547 46.5462 237.79C46.0889 238.023 45.5429 238.14 44.9082 238.14ZM44.9082 236.796C45.4215 236.796 45.8089 236.656 46.0702 236.376C46.3409 236.087 46.4762 235.681 46.4762 235.158V230.622C46.4762 230.09 46.3409 229.684 46.0702 229.404C45.8089 229.124 45.4215 228.984 44.9082 228.984C44.4042 228.984 44.0169 229.124 43.7462 229.404C43.4755 229.684 43.3402 230.09 43.3402 230.622V235.158C43.3402 235.681 43.4755 236.087 43.7462 236.376C44.0169 236.656 44.4042 236.796 44.9082 236.796ZM51.2027 238L50.0967 227.78H51.4547L52.1407 235.116C52.1594 235.303 52.1734 235.508 52.1827 235.732C52.2014 235.956 52.2154 236.175 52.2247 236.39C52.2434 236.605 52.2527 236.791 52.2527 236.95C52.2714 236.791 52.2901 236.605 52.3087 236.39C52.3274 236.175 52.3461 235.956 52.3647 235.732C52.3927 235.508 52.4207 235.303 52.4487 235.116L53.3307 227.78H54.7307L55.5567 235.116C55.5754 235.303 55.5941 235.508 55.6127 235.732C55.6407 235.956 55.6687 236.175 55.6967 236.39C55.7247 236.605 55.7434 236.791 55.7527 236.95C55.7621 236.791 55.7714 236.605 55.7807 236.39C55.7994 236.175 55.8181 235.956 55.8367 235.732C55.8554 235.508 55.8741 235.303 55.8927 235.116L56.5927 227.78H57.9087L56.7607 238H55.0107L54.1847 230.566C54.1661 230.37 54.1474 230.165 54.1287 229.95C54.1101 229.726 54.0914 229.511 54.0727 229.306C54.0541 229.091 54.0354 228.914 54.0167 228.774C54.0074 228.914 53.9934 229.091 53.9747 229.306C53.9561 229.511 53.9374 229.726 53.9187 229.95C53.9001 230.165 53.8767 230.37 53.8487 230.566L52.9667 238H51.2027ZM60.2133 238V227.78H66.2193V229.124H61.6973V232.022H65.7293V233.352H61.6973V236.656H66.2193V238H60.2133ZM69.1678 238V227.78H72.3738C73.0178 227.78 73.5778 227.906 74.0538 228.158C74.5298 228.401 74.8985 228.746 75.1598 229.194C75.4305 229.642 75.5658 230.169 75.5658 230.776C75.5658 231.457 75.3885 232.05 75.0338 232.554C74.6885 233.049 74.2171 233.399 73.6198 233.604L75.7058 238H73.9838L72.1218 233.8H70.6798V238H69.1678ZM70.6798 232.47H72.3738C72.8778 232.47 73.2791 232.321 73.5778 232.022C73.8765 231.714 74.0258 231.308 74.0258 230.804C74.0258 230.281 73.8765 229.871 73.5778 229.572C73.2791 229.273 72.8778 229.124 72.3738 229.124H70.6798V232.47Z" fill="white" fill-opacity="0.75"/>
<defs>
<linearGradient id="paint0_linear_34_4" x1="357.5" y1="0" x2="357.5" y2="460" gradientUnits="userSpaceOnUse">
<stop stop-color="#626B78"/>
<stop offset="1" stop-color="#5F6B79"/>
</linearGradient>
<linearGradient id="paint1_linear_34_4" x1="380.5" y1="54" x2="381" y2="135.5" gradientUnits="userSpaceOnUse">
<stop stop-color="#2E330B"/>
<stop offset="1" stop-color="#2E330B" stop-opacity="0"/>
</linearGradient>
<linearGradient id="paint2_linear_34_4" x1="104" y1="229" x2="127.5" y2="229" gradientUnits="userSpaceOnUse">
<stop offset="0.216346" stop-color="#0B0D05"/>
<stop offset="1" stop-color="#2E330B" stop-opacity="0"/>
</linearGradient>
<radialGradient id="paint3_radial_34_4" cx="0" cy="0" r="1" gradientUnits="userSpaceOnUse" gradientTransform="translate(104 54) rotate(28.6105) scale(37.5899 85.6203)">
<stop stop-color="#0B0D05"/>
<stop offset="1" stop-color="#2E330B" stop-opacity="0"/>
</radialGradient>
</defs>
</svg>
